# xmcd
#
# Track frame offsets:
#	150
#	13403
#	25498
#	42708
#	54805
#	67445
#	78130
#	91223
#	102068
#	116530
#	127070
#	138558
#	154433
#	166160
#	179463
#	195085
#
# Disc length: 2716 seconds
#
# Revision: 1
# Processed by: cddbd v1.4PL0 Copyright (c) Steve Scherf et al.
# Submitted via: audiograbber 1.80.04
#
DISCID=dc0a9a10
DTITLE=Kenny Rogers - Greatest Hits
DYEAR=1990
DGENRE=Country
TTITLE0=Ruby, Don't Take Your Love To Town
TTITLE1=Listen To The Music
TTITLE2=Something's Burning
TTITLE3=Me And Bobby McGee
TTITLE4=Ruben James
TTITLE5=Once Again She's All Alone
TTITLE6=Then I Miss You
TTITLE7=Good Time Liberator
TTITLE8=Sunshine
TTITLE9=New Design
TTITLE10=Always Leabing, Always Gone
TTITLE11=Momma's Waiting
TTITLE12=Girl, Get A Hold Of Yourself
TTITLE13=A Stranger In My Place
TTITLE14=My Washington Woman
TTITLE15=It's A Crazy Afternoon
EXTD=
EXTT0=
EXTT1=
EXTT2=
EXTT3=
EXTT4=
EXTT5=
EXTT6=
EXTT7=
EXTT8=
EXTT9=
EXTT10=
EXTT11=
EXTT12=
EXTT13=
EXTT14=
EXTT15=
PLAYORDER=
